@startuml
'https://plantuml.com/class-diagram

abstract class InputStream{
    read();
}

abstract class OutputStream{
    write();
}

class FileInputStream {}
class FileOutputStream {}
class BufferedInputStream {}
class BufferedOutputStream {}

InputStream <|-- FileInputStream
InputStream <|-- BufferedInputStream

OutputStream <|-- FileOutputStream
OutputStream <|-- BufferedOutputStream


abstract class Reader {}
abstract class write {}

class InputStreamReader {}
class OutputStreamWriter {}

Reader<|--InputStreamReader
write<|--OutputStreamWriter
@enduml